<?xml version="1.0" encoding="UTF-8"?>
<svg width="400px" height="100px" viewBox="0 0 400 100" version="1.1" xmlns="http://www.w3.org/2000/svg" xmlns:xlink="http://www.w3.org/1999/xlink">
    <!-- Generator: Sketch 43.2 (39069) - http://www.bohemiancoding.com/sketch -->
    <title>rellum-header</title>
    <desc>Created with Sketch.</desc>
    <defs></defs>
    <g id="rellum-logo" stroke="none" stroke-width="1" fill="none" fill-rule="evenodd">
        <g id="rellum-header" fill="#000000">
            <path d="M115.171875,19.9589844 L115.171875,41.4335938 L126.890625,41.4335938 C134.595703,41.4335938 139.341797,37.3320312 139.341797,30.7109375 C139.341797,24.0605469 134.595703,19.9589844 126.890625,19.9589844 L115.171875,19.9589844 Z M115.171875,42.546875 L115.171875,61.1210938 L114,61.1210938 L114,18.8457031 L126.890625,18.8457031 C135.357422,18.8457031 140.484375,23.328125 140.484375,30.7109375 C140.484375,36.8632812 136.646484,41.1699219 130.201172,42.2832031 L141.480469,61.1210938 L140.132812,61.1210938 L128.912109,42.4589844 C128.267578,42.5175781 127.59375,42.546875 126.890625,42.546875 L115.171875,42.546875 Z M162.574219,30.2421875 C155.25,30.2421875 150.298828,35.75 149.947266,44.2460938 L174.644531,44.2460938 C174.644531,35.75 169.898438,30.2421875 162.574219,30.2421875 Z M173.765625,54.1484375 L175.113281,54.1484375 C173.53125,58.6601562 168.667969,61.5898438 162.691406,61.5898438 C154.195312,61.5898438 148.746094,55.2617188 148.746094,45.3886719 C148.746094,35.4863281 154.136719,29.1289062 162.574219,29.1289062 C170.689453,29.1289062 175.816406,34.9882812 175.816406,44.2460938 L175.816406,45.359375 L149.917969,45.359375 L149.917969,45.3886719 C149.917969,54.5292969 154.957031,60.4765625 162.691406,60.4765625 C168.023438,60.4765625 172.359375,57.9863281 173.765625,54.1484375 Z M185.279297,61.1210938 L186.451172,61.1210938 L186.451172,17 L185.279297,17 L185.279297,61.1210938 Z M197.818359,61.1210938 L198.990234,61.1210938 L198.990234,17 L197.818359,17 L197.818359,61.1210938 Z M234.029297,29.5976562 L232.857422,29.5976562 L232.857422,48.4941406 C232.857422,55.4960938 228.111328,60.4765625 221.460938,60.4765625 C215.220703,60.4765625 211.03125,56.2285156 211.03125,49.9003906 L211.03125,29.5976562 L209.859375,29.5976562 L209.859375,50.28125 C209.859375,57.0195312 214.546875,61.5898438 221.431641,61.5898438 C226.939453,61.5898438 231.275391,58.6015625 232.798828,53.796875 L232.916016,53.796875 L232.916016,61.1210938 L234.029297,61.1210938 L234.029297,29.5976562 Z M244.810547,61.1210938 L245.982422,61.1210938 L245.982422,42.2539062 C245.982422,35.4570312 250.318359,30.2421875 255.855469,30.2421875 C261.099609,30.2421875 264.585938,34.4023438 264.585938,40.7011719 L264.585938,61.1210938 L265.757812,61.1210938 L265.757812,41.7558594 C265.757812,34.9296875 269.800781,30.2421875 275.689453,30.2421875 C281.109375,30.2421875 284.361328,34.0214844 284.361328,40.3203125 L284.361328,61.1210938 L285.533203,61.1210938 L285.533203,40.0273438 C285.533203,33.2597656 281.8125,29.1289062 275.689453,29.1289062 C270.796875,29.1289062 266.871094,32.1464844 265.435547,36.921875 L265.318359,36.921875 C264.175781,32.0292969 260.660156,29.1289062 255.855469,29.1289062 C251.226562,29.1289062 247.388672,32.234375 246.099609,36.921875 L245.982422,36.921875 L245.982422,29.5976562 L244.810547,29.5976562 L244.810547,61.1210938 Z" id="Rellum"></path>
            <path d="M35.6542969,86.6318359 L35.6542969,82.8085938 L36.9111328,81.3232422 L40.59375,86.6318359 L43.7753906,86.6318359 L38.8271484,79.5126953 L43.4501953,73.9492188 L40.4970703,73.9492188 L35.8125,79.6005859 L35.6542969,79.6005859 L35.6542969,73.9492188 L33,73.9492188 L33,86.6318359 L35.6542969,86.6318359 Z M45.515625,86.6318359 L48.0732422,86.6318359 L48.0732422,81.0419922 C48.0732422,79.7675781 48.8027344,78.9326172 49.9892578,78.9326172 C51.2021484,78.9326172 51.7734375,79.6357422 51.7734375,80.9716797 L51.7734375,86.6318359 L54.3310547,86.6318359 L54.3310547,80.3652344 C54.3310547,78.0449219 53.1708984,76.7265625 51.0175781,76.7265625 C49.5849609,76.7265625 48.6005859,77.4033203 48.1523438,78.4931641 L47.9941406,78.4931641 L47.9941406,76.9375 L45.515625,76.9375 L45.515625,86.6318359 Z M61.1074219,86.8427734 C58.1279297,86.8427734 56.3349609,84.953125 56.3349609,81.7802734 C56.3349609,78.6425781 58.1542969,76.7265625 61.1074219,76.7265625 C64.0605469,76.7265625 65.8798828,78.6337891 65.8798828,81.7802734 C65.8798828,84.953125 64.0869141,86.8427734 61.1074219,86.8427734 Z M61.1074219,84.7509766 C62.4697266,84.7509766 63.2519531,83.6611328 63.2519531,81.7802734 C63.2519531,79.9169922 62.4609375,78.8183594 61.1074219,78.8183594 C59.7451172,78.8183594 58.9628906,79.9169922 58.9628906,81.7802734 C58.9628906,83.6699219 59.7363281,84.7509766 61.1074219,84.7509766 Z M81.3925781,76.9375 L78.8525391,76.9375 L77.4111328,83.8896484 L77.2529297,83.8896484 L75.5478516,76.9375 L73.1044922,76.9375 L71.4082031,83.8896484 L71.25,83.8896484 L69.8085938,76.9375 L67.2158203,76.9375 L69.7998047,86.6318359 L72.4892578,86.6318359 L74.203125,79.9433594 L74.3613281,79.9433594 L76.0927734,86.6318359 L78.8173828,86.6318359 L81.3925781,76.9375 Z M101.282227,76.9375 L98.7421875,76.9375 L97.3007812,83.8896484 L97.1425781,83.8896484 L95.4375,76.9375 L92.9941406,76.9375 L91.2978516,83.8896484 L91.1396484,83.8896484 L89.6982422,76.9375 L87.1054688,76.9375 L89.6894531,86.6318359 L92.3789062,86.6318359 L94.0927734,79.9433594 L94.2509766,79.9433594 L95.9824219,86.6318359 L98.7070312,86.6318359 L101.282227,76.9375 Z M103.189453,86.6318359 L105.74707,86.6318359 L105.74707,81.0683594 C105.74707,79.8115234 106.485352,78.9589844 107.768555,78.9589844 C108.928711,78.9589844 109.552734,79.6533203 109.552734,80.9980469 L109.552734,86.6318359 L112.110352,86.6318359 L112.110352,80.3916016 C112.110352,78.0625 110.871094,76.7529297 108.788086,76.7529297 C107.364258,76.7529297 106.30957,77.4208984 105.861328,78.5283203 L105.703125,78.5283203 L105.703125,73.2373047 L103.189453,73.2373047 L103.189453,86.6318359 Z M118.78125,78.6865234 C117.594727,78.6865234 116.759766,79.5126953 116.671875,80.7695312 L120.802734,80.7695312 C120.75,79.4863281 119.976562,78.6865234 118.78125,78.6865234 Z M120.855469,83.8720703 L123.237305,83.8720703 C122.850586,85.7001953 121.180664,86.8427734 118.807617,86.8427734 C115.854492,86.8427734 114.114258,84.9794922 114.114258,81.8330078 C114.114258,78.6777344 115.889648,76.7265625 118.772461,76.7265625 C121.628906,76.7265625 123.316406,78.5458984 123.316406,81.6220703 L123.316406,82.4042969 L116.663086,82.4042969 L116.663086,82.5361328 C116.698242,83.9775391 117.541992,84.8740234 118.87793,84.8740234 C119.888672,84.8740234 120.583008,84.5136719 120.855469,83.8720703 Z M125.408203,86.6318359 L127.96582,86.6318359 L127.96582,81.0419922 C127.96582,79.7675781 128.695312,78.9326172 129.881836,78.9326172 C131.094727,78.9326172 131.666016,79.6357422 131.666016,80.9716797 L131.666016,86.6318359 L134.223633,86.6318359 L134.223633,80.3652344 C134.223633,78.0449219 133.063477,76.7265625 130.910156,76.7265625 C129.477539,76.7265625 128.493164,77.4033203 128.044922,78.4931641 L127.886719,78.4931641 L127.886719,76.9375 L125.408203,76.9375 L125.408203,86.6318359 Z M142.072266,74.6347656 L142.072266,77.0341797 L140.560547,77.0341797 L140.560547,79.046875 L142.072266,79.046875 L142.072266,84.0126953 C142.072266,85.9023438 143.003906,86.6669922 145.359375,86.6669922 C145.851562,86.6669922 146.326172,86.6142578 146.642578,86.5527344 L146.642578,84.6015625 C146.396484,84.6279297 146.220703,84.6367188 145.886719,84.6367188 C145.016602,84.6367188 144.629883,84.25 144.629883,83.40625 L144.629883,79.046875 L146.642578,79.046875 L146.642578,77.0341797 L144.629883,77.0341797 L144.629883,74.6347656 L142.072266,74.6347656 Z M153.067383,86.8427734 C150.087891,86.8427734 148.294922,84.953125 148.294922,81.7802734 C148.294922,78.6425781 150.114258,76.7265625 153.067383,76.7265625 C156.020508,76.7265625 157.839844,78.6337891 157.839844,81.7802734 C157.839844,84.953125 156.046875,86.8427734 153.067383,86.8427734 Z M153.067383,84.7509766 C154.429688,84.7509766 155.211914,83.6611328 155.211914,81.7802734 C155.211914,79.9169922 154.420898,78.8183594 153.067383,78.8183594 C151.705078,78.8183594 150.922852,79.9169922 150.922852,81.7802734 C150.922852,83.6699219 151.696289,84.7509766 153.067383,84.7509766 Z M173.334961,76.9375 L170.777344,76.9375 L170.777344,82.5273438 C170.777344,83.8193359 170.091797,84.6191406 168.817383,84.6191406 C167.639648,84.6191406 167.033203,83.9335938 167.033203,82.5976562 L167.033203,76.9375 L164.475586,76.9375 L164.475586,83.2568359 C164.475586,85.5068359 165.776367,86.8427734 167.868164,86.8427734 C169.335938,86.8427734 170.241211,86.2011719 170.698242,85.0761719 L170.856445,85.0761719 L170.856445,86.6318359 L173.334961,86.6318359 L173.334961,76.9375 Z M175.681641,79.7851562 C175.681641,81.2792969 176.595703,82.1757812 178.476562,82.5888672 L180.234375,82.984375 C181.086914,83.1689453 181.456055,83.4589844 181.456055,83.9335938 C181.456055,84.5576172 180.770508,84.9707031 179.777344,84.9707031 C178.757812,84.9707031 178.133789,84.5927734 177.94043,83.9335938 L175.444336,83.9335938 C175.620117,85.796875 177.166992,86.8427734 179.724609,86.8427734 C182.264648,86.8427734 183.996094,85.5771484 183.996094,83.6435547 C183.996094,82.1933594 183.152344,81.4023438 181.271484,80.9892578 L179.452148,80.59375 C178.555664,80.3916016 178.142578,80.1015625 178.142578,79.6269531 C178.142578,79.0117188 178.819336,78.5986328 179.733398,78.5986328 C180.682617,78.5986328 181.271484,78.9853516 181.40332,79.609375 L183.767578,79.609375 C183.626953,77.7548828 182.176758,76.7265625 179.71582,76.7265625 C177.298828,76.7265625 175.681641,77.9482422 175.681641,79.7851562 Z M190.289062,78.6865234 C189.102539,78.6865234 188.267578,79.5126953 188.179688,80.7695312 L192.310547,80.7695312 C192.257812,79.4863281 191.484375,78.6865234 190.289062,78.6865234 Z M192.363281,83.8720703 L194.745117,83.8720703 C194.358398,85.7001953 192.688477,86.8427734 190.31543,86.8427734 C187.362305,86.8427734 185.62207,84.9794922 185.62207,81.8330078 C185.62207,78.6777344 187.397461,76.7265625 190.280273,76.7265625 C193.136719,76.7265625 194.824219,78.5458984 194.824219,81.6220703 L194.824219,82.4042969 L188.170898,82.4042969 L188.170898,82.5361328 C188.206055,83.9775391 189.049805,84.8740234 190.385742,84.8740234 C191.396484,84.8740234 192.09082,84.5136719 192.363281,83.8720703 Z M207.269531,86.78125 C205.898438,86.78125 204.799805,86.1660156 204.28125,85.1113281 L204.123047,85.1113281 L204.123047,86.6318359 L201.644531,86.6318359 L201.644531,73.2373047 L204.202148,73.2373047 L204.202148,78.484375 L204.360352,78.484375 C204.852539,77.4208984 205.942383,76.7792969 207.269531,76.7792969 C209.72168,76.7792969 211.198242,78.6513672 211.198242,81.7802734 C211.198242,84.8916016 209.704102,86.78125 207.269531,86.78125 Z M206.381836,78.9238281 C205.037109,78.9238281 204.18457,80.0224609 204.175781,81.7890625 C204.18457,83.546875 205.02832,84.6455078 206.381836,84.6455078 C207.744141,84.6455078 208.570312,83.5556641 208.570312,81.7802734 C208.570312,80.0136719 207.735352,78.9238281 206.381836,78.9238281 Z M213.369141,86.6318359 L215.926758,86.6318359 L215.926758,73.2373047 L213.369141,73.2373047 L213.369141,86.6318359 Z M222.079102,84.8564453 C223.265625,84.8564453 224.162109,84.1005859 224.162109,83.1162109 L224.162109,82.4042969 L222.202148,82.5273438 C221.103516,82.6064453 220.567383,83.0019531 220.567383,83.6962891 C220.567383,84.4169922 221.191406,84.8564453 222.079102,84.8564453 Z M221.235352,86.78125 C219.37207,86.78125 218.0625,85.6386719 218.0625,83.8632812 C218.0625,82.1054688 219.407227,81.0859375 221.81543,80.9453125 L224.162109,80.8046875 L224.162109,80.0136719 C224.162109,79.2050781 223.582031,78.7480469 222.527344,78.7480469 C221.604492,78.7480469 220.989258,79.0644531 220.77832,79.6445312 L218.422852,79.6445312 C218.589844,77.8515625 220.233398,76.7265625 222.667969,76.7265625 C225.234375,76.7265625 226.68457,77.9394531 226.68457,80.0136719 L226.68457,86.6318359 L224.206055,86.6318359 L224.206055,85.3662109 L224.047852,85.3662109 C223.546875,86.2539062 222.492188,86.78125 221.235352,86.78125 Z M237.776367,80.3564453 C237.56543,78.1503906 236.027344,76.7265625 233.460938,76.7265625 C230.428711,76.7265625 228.723633,78.5458984 228.723633,81.7626953 C228.723633,85.0146484 230.4375,86.8427734 233.460938,86.8427734 C235.983398,86.8427734 237.56543,85.4453125 237.776367,83.2744141 L235.385742,83.2744141 C235.192383,84.2324219 234.506836,84.7421875 233.460938,84.7421875 C232.089844,84.7421875 231.307617,83.6962891 231.307617,81.7626953 C231.307617,79.8554688 232.081055,78.8271484 233.460938,78.8271484 C234.550781,78.8271484 235.209961,79.4335938 235.385742,80.3564453 L237.776367,80.3564453 Z M242.575195,80.7255859 L242.416992,80.7255859 L242.416992,73.2373047 L239.859375,73.2373047 L239.859375,86.6318359 L242.416992,86.6318359 L242.416992,83.4150391 L243.120117,82.6943359 L245.950195,86.6318359 L248.982422,86.6318359 L245.036133,81.0947266 L248.727539,76.9375 L245.818359,76.9375 L242.575195,80.7255859 Z M259.538086,86.8427734 C256.558594,86.8427734 254.765625,84.953125 254.765625,81.7802734 C254.765625,78.6425781 256.584961,76.7265625 259.538086,76.7265625 C262.491211,76.7265625 264.310547,78.6337891 264.310547,81.7802734 C264.310547,84.953125 262.517578,86.8427734 259.538086,86.8427734 Z M259.538086,84.7509766 C260.900391,84.7509766 261.682617,83.6611328 261.682617,81.7802734 C261.682617,79.9169922 260.891602,78.8183594 259.538086,78.8183594 C258.175781,78.8183594 257.393555,79.9169922 257.393555,81.7802734 C257.393555,83.6699219 258.166992,84.7509766 259.538086,84.7509766 Z M266.393555,86.6318359 L268.951172,86.6318359 L268.951172,81.2617188 C268.951172,79.8994141 269.90918,79.0732422 271.306641,79.0732422 C271.719727,79.0732422 272.317383,79.1523438 272.519531,79.2314453 L272.519531,76.9023438 C272.299805,76.8232422 271.869141,76.7792969 271.517578,76.7792969 C270.287109,76.7792969 269.285156,77.5175781 269.030273,78.484375 L268.87207,78.484375 L268.87207,76.9375 L266.393555,76.9375 L266.393555,86.6318359 Z M292.294922,76.9375 L289.754883,76.9375 L288.313477,83.8896484 L288.155273,83.8896484 L286.450195,76.9375 L284.006836,76.9375 L282.310547,83.8896484 L282.152344,83.8896484 L280.710938,76.9375 L278.118164,76.9375 L280.702148,86.6318359 L283.391602,86.6318359 L285.105469,79.9433594 L285.263672,79.9433594 L286.995117,86.6318359 L289.719727,86.6318359 L292.294922,76.9375 Z M294.202148,86.6318359 L296.759766,86.6318359 L296.759766,81.0683594 C296.759766,79.8115234 297.498047,78.9589844 298.78125,78.9589844 C299.941406,78.9589844 300.56543,79.6533203 300.56543,80.9980469 L300.56543,86.6318359 L303.123047,86.6318359 L303.123047,80.3916016 C303.123047,78.0625 301.883789,76.7529297 299.800781,76.7529297 C298.376953,76.7529297 297.322266,77.4208984 296.874023,78.5283203 L296.71582,78.5283203 L296.71582,73.2373047 L294.202148,73.2373047 L294.202148,86.6318359 Z M305.619141,86.6318359 L308.176758,86.6318359 L308.176758,76.9375 L305.619141,76.9375 L305.619141,86.6318359 Z M306.902344,75.5839844 C307.816406,75.5839844 308.414062,75.0478516 308.414062,74.2919922 C308.414062,73.5273438 307.816406,73 306.902344,73 C305.979492,73 305.390625,73.5273438 305.390625,74.2919922 C305.390625,75.0478516 305.979492,75.5839844 306.902344,75.5839844 Z M311.490234,74.6347656 L311.490234,77.0341797 L309.978516,77.0341797 L309.978516,79.046875 L311.490234,79.046875 L311.490234,84.0126953 C311.490234,85.9023438 312.421875,86.6669922 314.777344,86.6669922 C315.269531,86.6669922 315.744141,86.6142578 316.060547,86.5527344 L316.060547,84.6015625 C315.814453,84.6279297 315.638672,84.6367188 315.304688,84.6367188 C314.43457,84.6367188 314.047852,84.25 314.047852,83.40625 L314.047852,79.046875 L316.060547,79.046875 L316.060547,77.0341797 L314.047852,77.0341797 L314.047852,74.6347656 L311.490234,74.6347656 Z M322.379883,78.6865234 C321.193359,78.6865234 320.358398,79.5126953 320.270508,80.7695312 L324.401367,80.7695312 C324.348633,79.4863281 323.575195,78.6865234 322.379883,78.6865234 Z M324.454102,83.8720703 L326.835938,83.8720703 C326.449219,85.7001953 324.779297,86.8427734 322.40625,86.8427734 C319.453125,86.8427734 317.712891,84.9794922 317.712891,81.8330078 C317.712891,78.6777344 319.488281,76.7265625 322.371094,76.7265625 C325.227539,76.7265625 326.915039,78.5458984 326.915039,81.6220703 L326.915039,82.4042969 L320.261719,82.4042969 L320.261719,82.5361328 C320.296875,83.9775391 321.140625,84.8740234 322.476562,84.8740234 C323.487305,84.8740234 324.181641,84.5136719 324.454102,83.8720703 Z M334.376953,74.6347656 L334.376953,77.0341797 L332.865234,77.0341797 L332.865234,79.046875 L334.376953,79.046875 L334.376953,84.0126953 C334.376953,85.9023438 335.308594,86.6669922 337.664062,86.6669922 C338.15625,86.6669922 338.630859,86.6142578 338.947266,86.5527344 L338.947266,84.6015625 C338.701172,84.6279297 338.525391,84.6367188 338.191406,84.6367188 C337.321289,84.6367188 336.93457,84.25 336.93457,83.40625 L336.93457,79.046875 L338.947266,79.046875 L338.947266,77.0341797 L336.93457,77.0341797 L336.93457,74.6347656 L334.376953,74.6347656 Z M345.266602,78.6865234 C344.080078,78.6865234 343.245117,79.5126953 343.157227,80.7695312 L347.288086,80.7695312 C347.235352,79.4863281 346.461914,78.6865234 345.266602,78.6865234 Z M347.34082,83.8720703 L349.722656,83.8720703 C349.335938,85.7001953 347.666016,86.8427734 345.292969,86.8427734 C342.339844,86.8427734 340.599609,84.9794922 340.599609,81.8330078 C340.599609,78.6777344 342.375,76.7265625 345.257812,76.7265625 C348.114258,76.7265625 349.801758,78.5458984 349.801758,81.6220703 L349.801758,82.4042969 L343.148438,82.4042969 L343.148438,82.5361328 C343.183594,83.9775391 344.027344,84.8740234 345.363281,84.8740234 C346.374023,84.8740234 347.068359,84.5136719 347.34082,83.8720703 Z M355.866211,83.4677734 L357.667969,86.6318359 L360.515625,86.6318359 L357.448242,81.7275391 L360.489258,76.9375 L357.694336,76.9375 L355.980469,80.1191406 L355.822266,80.1191406 L354.108398,76.9375 L351.172852,76.9375 L354.231445,81.8417969 L351.19043,86.6318359 L353.90625,86.6318359 L355.708008,83.4677734 L355.866211,83.4677734 Z M363.082031,74.6347656 L363.082031,77.0341797 L361.570312,77.0341797 L361.570312,79.046875 L363.082031,79.046875 L363.082031,84.0126953 C363.082031,85.9023438 364.013672,86.6669922 366.369141,86.6669922 C366.861328,86.6669922 367.335938,86.6142578 367.652344,86.5527344 L367.652344,84.6015625 C367.40625,84.6279297 367.230469,84.6367188 366.896484,84.6367188 C366.026367,84.6367188 365.639648,84.25 365.639648,83.40625 L365.639648,79.046875 L367.652344,79.046875 L367.652344,77.0341797 L365.639648,77.0341797 L365.639648,74.6347656 L363.082031,74.6347656 Z" id="Know-when-to-use-bla"></path>
        </g>
    </g>
</svg>